<svg xmlns="http://www.w3.org/2000/svg" xmlns:xlink="http://www.w3.org/1999/xlink" version="1.1" id="Your_Icon" x="0px" y="0px" width="100px" height="100px" viewBox="0 0 100 100" style="enable-background:new 0 0 100 100;" xml:space="preserve">
<g>
	<path d="M83.32,2.542c-7.773-4.883-18.022-2.539-22.904,5.221L30.051,56.099c-1.954,3.085-2.605,6.582-1.875,9.739   c0.69,3.151,2.696,5.886,5.481,7.631c2.772,1.758,6.108,2.362,9.259,1.627c3.151-0.735,6.016-2.824,7.942-5.912l19.219-30.587   c1.068-1.704,0.548-3.95-1.146-5.019c-1.705-1.067-3.958-0.547-5.026,1.133L44.701,65.304c-1.068,1.687-2.268,2.416-3.452,2.708   c-1.186,0.28-2.447,0.093-3.725-0.696c-1.263-0.813-1.979-1.868-2.251-3.053c-0.25-1.191-0.105-2.599,0.938-4.284L66.576,11.65   c2.748-4.382,8.49-5.684,12.863-2.95c4.363,2.755,5.677,8.518,2.943,12.879L42.877,84.478c-2.552,4.05-6.095,6.614-9.727,7.67   c-3.647,1.062-7.293,0.658-10.404-1.303c-3.126-1.959-5.066-5.064-5.703-8.795c-0.625-3.738,0.143-8.047,2.694-12.104   l28.271-45.014c1.08-1.712,0.56-3.958-1.147-5.026c-1.693-1.067-3.933-0.547-5.012,1.14L13.58,66.06   c-3.438,5.476-4.637,11.596-3.711,17.182c0.909,5.566,4.023,10.644,9.01,13.77c4.961,3.125,10.899,3.718,16.315,2.135   c5.43-1.588,10.416-5.331,13.843-10.807l39.518-62.905C93.424,17.672,91.08,7.418,83.32,2.542z"/>
</g>
</svg>