<svg xmlns="http://www.w3.org/2000/svg" xmlns:xlink="http://www.w3.org/1999/xlink" version="1.1" x="0px" y="0px" width="100px" height="100px" viewBox="0 0 100 100" enable-background="new 0 0 100 100" xml:space="preserve">
<g id="Captions">
	<rect x="-606" y="-276" width="185" height="99"/>
	<rect x="-414" y="-312" width="100" height="30"/>
	<text transform="matrix(1 0 0 1 -348 -295.5)" fill="#000000" font-family="'Helvetica'" font-size="2.4">http://thenounproject.com</text>
	<text transform="matrix(1 0 0 1 -406.834 -300.5)"><tspan x="0" y="0" fill="#000000" font-family="'Helvetica-Bold'" font-size="6.1578">The Noun Project</tspan><tspan x="1.12" y="4.8" fill="#000000" font-family="'Helvetica-Bold'" font-size="4">Icon Template</tspan></text>
	<text transform="matrix(1 0 0 1 -592.5 -265.5)" fill="#000000" font-family="'Helvetica-Bold'" font-size="6.1578">Reminders</text>
	<line fill="#000000" stroke="#FFFFFF" stroke-miterlimit="10" x1="-406" y1="-290.5" x2="-396" y2="-290.5"/>
	<line fill="#000000" stroke="#FFFFFF" stroke-miterlimit="10" x1="-593" y1="-259.5" x2="-576" y2="-259.5"/>
	<g>
		<g>
			<g>
				<rect x="-584.802" y="-244.682" fill="#000000" width="8.721" height="8.642"/>
				<path fill="#000000" d="M-578.455-233.688h4.747v-4.703h-4.747V-233.688z M-573.266-233.251h-5.63v-5.579h5.63V-233.251      L-573.266-233.251z M-580.221-231.938h8.279v-8.203h-8.279V-231.938L-580.221-231.938z M-571.5-231.5h-9.163v-9.079h9.163      V-231.5L-571.5-231.5z"/>
				<polygon fill="#000000" points="-580.149,-231.867 -580.292,-232.009 -572.013,-240.213 -571.871,-240.071     "/>
			</g>
		</g>
	</g>
	<rect x="-593" y="-218" fill="none" width="35" height="32.5"/>
	<text transform="matrix(1 0 0 1 -593 -215.8428)"><tspan x="0" y="0" fill="#000000" font-family="'Helvetica-Bold'" font-size="3">Strokes</tspan><tspan x="0" y="5" fill="#000000" font-family="'Helvetica'" font-size="2.4">Try to keep strokes at 4px</tspan><tspan x="0" y="10" fill="#000000" font-family="'Helvetica'" font-size="2.4">Minimum stroke weight is 2px</tspan><tspan x="0" y="14.5" fill="#000000" font-family="'Helvetica'" font-size="2.4">For thicker strokes use even </tspan><tspan x="0" y="17.5" fill="#000000" font-family="'Helvetica'" font-size="2.4">numbers: 6px, 8px etc.</tspan><tspan x="0" y="22" fill="#000000" font-family="'Helvetica-Bold'" font-size="2.4">Remember to expand strokes </tspan><tspan x="0" y="25" fill="#000000" font-family="'Helvetica-Bold'" font-size="2.4">before saving as an SVG </tspan></text>
	<rect x="-550.5" y="-218" fill="none" width="35" height="32.5"/>
	<text transform="matrix(1 0 0 1 -550.5 -215.8428)"><tspan x="0" y="0" fill="#000000" font-family="'Helvetica-Bold'" font-size="3">Size</tspan><tspan x="0" y="5" fill="#000000" font-family="'Helvetica'" font-size="2.4">Cannot be wider or taller than </tspan><tspan x="0" y="8.5" fill="#000000" font-family="'Helvetica'" font-size="2.4">100px (artboard size)</tspan><tspan x="0" y="13.5" fill="#000000" font-family="'Helvetica'" font-size="2.4">Scale your icon to fill as much of </tspan><tspan x="0" y="16.5" fill="#000000" font-family="'Helvetica'" font-size="2.4">the artboard as possible</tspan></text>
	<rect x="-508" y="-218" fill="none" width="35" height="32.5"/>
	<text transform="matrix(1 0 0 1 -508 -215.8428)"><tspan x="0" y="0" fill="#000000" font-family="'Helvetica-Bold'" font-size="3">Ungroup</tspan><tspan x="0" y="5" fill="#000000" font-family="'Helvetica'" font-size="2.4">If your design has more than one </tspan><tspan x="0" y="8" fill="#000000" font-family="'Helvetica'" font-size="2.4">shape, make sure to ungroup</tspan></text>
	<rect x="-464" y="-218" fill="none" width="35" height="32.5"/>
	<text transform="matrix(1 0 0 1 -464 -215.8428)"><tspan x="0" y="0" fill="#000000" font-family="'Helvetica-Bold'" font-size="3">Save as</tspan><tspan x="0" y="5" fill="#000000" font-family="'Helvetica'" font-size="2.4">Save as .SVG and make sure </tspan><tspan x="0" y="8" fill="#000000" font-family="'Helvetica'" font-size="2.4">&#8220;Use Artboards&#8221; is checked</tspan></text>
	<text transform="matrix(1.0074 0 0 1 -539.542 -245.4067)" fill="#000000" font-family="'Helvetica'" font-size="2.5731">100px</text>
	<text transform="matrix(1.0074 0 0 1 -455 -237)" fill="#000000" font-family="'Helvetica-Bold'" font-size="5.1462">.SVG</text>
	<rect x="-540.514" y="-241.185" fill="#000000" width="10.261" height="10.185"/>
	<rect x="-540.477" y="-244.234" fill="#000000" width="0.522" height="2.337"/>
	<rect x="-530.812" y="-244.234" fill="#000000" width="0.523" height="2.337"/>
	<rect x="-541" y="-243.663" fill="#000000" width="11.233" height="0.572"/>
	<g>
		<rect x="-497.805" y="-242.156" fill="#000000" width="10.305" height="10.156"/>
		<rect x="-490.809" y="-247.293" fill="#000000" width="3.308" height="3.261"/>
	</g>
	<rect x="-592.5" y="-253.5" fill="#000000" stroke="#FFFFFF" stroke-miterlimit="10" width="30" height="30"/>
	<rect x="-550.5" y="-253.5" fill="#000000" stroke="#FFFFFF" stroke-miterlimit="10" width="30" height="30"/>
	<rect x="-507.5" y="-253.5" fill="#000000" stroke="#FFFFFF" stroke-miterlimit="10" width="30" height="30"/>
	<rect x="-463.5" y="-253.5" fill="#000000" stroke="#FFFFFF" stroke-miterlimit="10" width="30" height="30"/>
</g>
<g id="Your_Icon">
	<path fill="#000000" d="M-345.562-238h-13.816l16.266-18.726c0.828-0.959,1.025-2.271,0.496-3.425   c-0.527-1.152-1.68-1.85-2.945-1.85h-22.994c-1.216,0-2.329,0.678-2.883,1.756l-19.203,37.291c-0.516,1.006-0.472,2.32,0.117,3.285   c0.585,0.965,1.633,1.668,2.767,1.668h9.93h0.02h0.018h4.146l-7.267,23.938c-0.448,1.492,0.229,3.041,1.614,3.756   c0.473,0.246,0.981,0.335,1.488,0.335c0.973,0,1.924-0.45,2.557-1.26l32.247-41.356c0.76-0.978,0.898-2.394,0.354-3.505   C-343.195-237.206-344.322-238-345.562-238z"/>
	<path fill="#000000" d="M-186.744-235.846c-1.137-1.361-3.15-1.545-4.514-0.41L-222-210.627l-30.742-25.629   c-1.361-1.132-3.381-0.947-4.514,0.41c-1.135,1.358-0.951,3.381,0.408,4.514l32.795,27.338c0.594,0.496,1.324,0.744,2.053,0.744   c0.73,0,1.459-0.248,2.053-0.744l32.795-27.338C-185.793-232.465-185.609-234.487-186.744-235.846z"/>
	<path fill="#000000" d="M-51.152-216.917l-32.793-27.338C-84.541-244.752-85.271-245-86-245c-0.73,0-1.459,0.248-2.053,0.745   l-32.795,27.338c-1.359,1.132-1.543,3.155-0.408,4.513c1.137,1.363,3.152,1.545,4.512,0.412L-86-237.623l30.742,25.631   c1.363,1.131,3.381,0.947,4.514-0.412C-49.609-213.762-49.793-215.785-51.152-216.917z"/>
	<path fill="#000000" d="M66.254-228.053l-27.338-32.795c-1.131-1.359-3.154-1.543-4.512-0.408   c-1.361,1.137-1.545,3.152-0.412,4.512L59.621-226l-25.629,30.742c-1.131,1.363-0.947,3.379,0.412,4.514   c1.357,1.135,3.381,0.951,4.512-0.408l27.338-32.793C66.752-224.541,67-225.271,67-226C67-226.73,66.752-227.459,66.254-228.053z"/>
	<path fill="#000000" d="M203.006-195.258L177.377-226l25.629-30.742c1.133-1.361,0.947-3.379-0.41-4.514s-3.381-0.951-4.514,0.408   l-27.338,32.795C170.246-227.459,170-226.729,170-226c0,0.73,0.246,1.459,0.744,2.053l27.338,32.795   c1.133,1.359,3.156,1.543,4.514,0.408C203.957-191.881,204.141-193.895,203.006-195.258z"/>
	<path fill="#000000" d="M-323.744-94.596c-0.602-0.721-1.449-1.23-2.316-1.27l0.006-0.135h-65.842l0.01,0.137   c-0.886,0.027-1.757,0.469-2.369,1.203c-1.135,1.356-0.951,3.413,0.408,4.545l32.795,27.354c0.596,0.497,1.324,0.753,2.053,0.753   c0.73,0,1.459-0.244,2.055-0.741l32.793-27.336C-322.793-91.217-322.609-93.239-323.744-94.596z"/>
	<path fill="#000000" d="M-188.186-78.824l-33.705-28.099c-0.611-0.51-1.361-0.765-2.109-0.765c-0.75,0-1.5,0.255-2.111,0.765   l-33.703,28.099c-1.398,1.164-1.586,3.242-0.42,4.638c0.631,0.758,1.527,1.147,2.439,1.172L-257.811-73h67.672l-0.018-0.017   c0.895-0.038,1.773-0.429,2.393-1.17C-186.6-75.582-186.787-77.66-188.186-78.824z"/>
	<path fill="#000000" d="M-66.996-88.054l-27.338-32.794c-1.131-1.359-3.154-1.543-4.512-0.408c-0.73,0.609-1.109,1.471-1.141,2.35   l-0.014-0.016v65.844l0.016-0.019c0.031,0.88,0.41,1.743,1.139,2.353c1.357,1.133,3.381,0.951,4.512-0.41l27.338-32.793   c0.498-0.594,0.746-1.324,0.746-2.053C-66.25-86.732-66.498-87.459-66.996-88.054z"/>
	<path fill="#000000" d="M62.984-117.904c-0.029-0.88-0.408-1.744-1.137-2.353c-1.357-1.134-3.381-0.951-4.514,0.409L29.996-87.054   c-0.498,0.595-0.744,1.323-0.744,2.054s0.246,1.459,0.744,2.053l27.338,32.795c1.133,1.358,3.156,1.543,4.514,0.408   c0.729-0.609,1.107-1.472,1.141-2.35L63-52.079v-65.843L62.984-117.904z"/>
	<path fill="#000000" d="M220.006-91.193l-51.309-0.057l19.633-23.552c1.76-2.118,1.471-5.274-0.643-7.036   c-0.896-0.749-2.033-1.162-3.199-1.162c-1.49,0-2.891,0.657-3.842,1.799l-26.49,31.775c-0.746,0.896-1.156,2.034-1.156,3.2   c0,1.17,0.412,2.308,1.158,3.201l26.486,31.771c0.955,1.145,2.355,1.801,3.846,1.801c1.166,0,2.303-0.41,3.197-1.156   c2.117-1.768,2.406-4.926,0.641-7.043l-19.67-23.597l51.338,0.056c2.754,0,4.998-2.239,5.004-4.994   C225.004-88.941,222.766-91.188,220.006-91.193z"/>
	<path fill="#000000" d="M-334.649,46.865l-25.929-31.104c-0.934-1.119-2.307-1.762-3.766-1.762c-1.141,0-2.252,0.402-3.129,1.133   c-2.073,1.729-2.354,4.822-0.627,6.895l19.256,23.1l-50.258-0.055c-2.695,0-4.893,2.193-4.898,4.889   c-0.004,2.697,2.188,4.896,4.889,4.902l50.23,0.055l-19.221,23.057c-1.723,2.073-1.441,5.164,0.629,6.889   c0.878,0.732,1.99,1.137,3.132,1.137h0.001c1.457,0,2.828-0.643,3.761-1.762l25.932-31.105c0.731-0.878,1.133-1.991,1.133-3.133   C-333.515,48.855-333.918,47.74-334.649,46.865z"/>
	<path fill="#000000" d="M-194.762,42.582l-31.104-25.933c-1.762-1.464-4.52-1.457-6.27,0.002l-31.102,25.929   c-1.004,0.837-1.623,2.015-1.742,3.316c-0.119,1.304,0.275,2.573,1.113,3.577c0.934,1.12,2.305,1.763,3.762,1.763   c1.143,0,2.254-0.403,3.133-1.136l23.098-19.255l-0.055,50.257c0,2.695,2.193,4.893,4.891,4.897h0.008   c2.693,0,4.889-2.191,4.893-4.888l0.055-50.229l23.057,19.22c0.879,0.73,1.99,1.131,3.129,1.131c1.457,0,2.828-0.641,3.76-1.76   c0.836-1.003,1.234-2.272,1.117-3.575C-193.139,44.596-193.758,43.418-194.762,42.582z"/>
	<path fill="#000000" d="M-52.104,56.516c-0.906-1.089-2.238-1.714-3.654-1.714c-1.109,0-2.193,0.391-3.047,1.104l-22.457,18.722   l0.053-48.863c0-2.62-2.135-4.76-4.762-4.765c-2.615,0-4.756,2.131-4.76,4.753l-0.053,48.836l-22.412-18.684   c-0.857-0.711-1.939-1.102-3.047-1.102c-1.418,0-2.746,0.625-3.652,1.712c-0.816,0.974-1.201,2.207-1.086,3.478   c0.113,1.264,0.715,2.413,1.693,3.224l30.24,25.214c0.854,0.711,1.936,1.101,3.047,1.101c1.115,0,2.199-0.393,3.045-1.104   l30.238-25.21c0.98-0.812,1.58-1.96,1.695-3.223C-50.902,58.725-51.287,57.489-52.104,56.516z"/>
	<g>
		<path fill="#000000" d="M46.94,48.37C32.987,36.051,20.179,36.312,19.645,36.346c-2.956,0.094-5.249,2.483-5.186,5.439    C14.517,44.721,16.951,47,19.883,47h0.051c0.303,0,9.327,0.089,19.863,9.393c10.427,9.209,11.36,18.448,11.399,18.926    c0.202,2.84,2.563,5.032,5.378,5.032c0.11,0,0.223,0.004,0.337-0.001c2.972-0.184,5.238-2.739,5.054-5.713    C61.931,74.074,60.958,60.751,46.94,48.37z"/>
		<path fill="#000000" d="M85.447,73.486c-0.055-0.859-1.542-21.281-23.409-40.593C40.243,13.654,20.587,14.06,19.786,14.089    c-2.978,0.097-5.317,2.589-5.217,5.567c0.095,2.981,2.593,5.309,5.567,5.219c0.166-0.004,16.144-0.323,34.758,16.107    c18.264,16.133,19.723,32.416,19.781,33.193c0.189,2.846,2.561,5.038,5.38,5.038c0.11,0,0.222-0.007,0.336-0.011    C83.365,79.019,85.631,76.461,85.447,73.486z"/>
		<path fill="#000000" d="M28,58.631v-0.068c0,0,0.104,0.03,0.002,0.03S28,58.562,28,58.562V58.631    c-6,0.441-9.763,4.941-9.763,10.514c0,5.569,3.763,10.074,9.763,10.51v0.074c0-0.009-0.1-0.031,0.002-0.041    C28.104,79.697,28,79.72,28,79.729v-0.074c6-0.436,9.766-4.94,9.766-10.51C37.766,63.572,34,59.072,28,58.631z"/>
	</g>
</g>
</svg>